<svg xmlns="http://www.w3.org/2000/svg" xmlns:xlink="http://www.w3.org/1999/xlink" width="361" zoomAndPan="magnify" viewBox="0 0 270.75 270.749989" height="361" preserveAspectRatio="xMidYMid meet" version="1.0"><defs><clipPath id="d7e855ab7a"><path d="M 0 0 L 269.804688 0 L 269.804688 269.804688 L 0 269.804688 Z M 0 0 " clip-rule="nonzero"/></clipPath><clipPath id="3661b034a5"><path d="M 20.980469 0 L 248.824219 0 C 254.386719 0 259.726562 2.210938 263.660156 6.144531 C 267.59375 10.078125 269.804688 15.417969 269.804688 20.980469 L 269.804688 248.824219 C 269.804688 254.386719 267.59375 259.726562 263.660156 263.660156 C 259.726562 267.59375 254.386719 269.804688 248.824219 269.804688 L 20.980469 269.804688 C 15.417969 269.804688 10.078125 267.59375 6.144531 263.660156 C 2.210938 259.726562 0 254.386719 0 248.824219 L 0 20.980469 C 0 15.417969 2.210938 10.078125 6.144531 6.144531 C 10.078125 2.210938 15.417969 0 20.980469 0 Z M 20.980469 0 " clip-rule="nonzero"/></clipPath><clipPath id="9ab636e7bc"><path d="M 0 0 L 269.804688 0 L 269.804688 269.804688 L 0 269.804688 Z M 0 0 " clip-rule="nonzero"/></clipPath><clipPath id="4f07c23add"><path d="M 20.980469 0 L 248.824219 0 C 254.386719 0 259.726562 2.210938 263.660156 6.144531 C 267.59375 10.078125 269.804688 15.417969 269.804688 20.980469 L 269.804688 248.824219 C 269.804688 254.386719 267.59375 259.726562 263.660156 263.660156 C 259.726562 267.59375 254.386719 269.804688 248.824219 269.804688 L 20.980469 269.804688 C 15.417969 269.804688 10.078125 267.59375 6.144531 263.660156 C 2.210938 259.726562 0 254.386719 0 248.824219 L 0 20.980469 C 0 15.417969 2.210938 10.078125 6.144531 6.144531 C 10.078125 2.210938 15.417969 0 20.980469 0 Z M 20.980469 0 " clip-rule="nonzero"/></clipPath><clipPath id="fb4b7da902"><rect x="0" width="270" y="0" height="270"/></clipPath><clipPath id="6cf98497eb"><path d="M 6.621094 20.25 L 263.386719 20.25 L 263.386719 249.585938 L 6.621094 249.585938 Z M 6.621094 20.25 " clip-rule="nonzero"/></clipPath><clipPath id="ab5b58a83c"><path d="M 6.621094 25.496094 L 6.621094 244.308594 C 6.621094 245.699219 7.175781 247.03125 8.15625 248.015625 C 9.140625 249 10.476562 249.554688 11.867188 249.554688 L 257.9375 249.554688 C 259.328125 249.554688 260.664062 249 261.648438 248.015625 C 262.628906 247.03125 263.183594 245.699219 263.183594 244.308594 L 263.183594 25.496094 C 263.183594 24.105469 262.628906 22.769531 261.648438 21.789062 C 260.664062 20.804688 259.328125 20.25 257.9375 20.25 L 11.867188 20.25 C 10.476562 20.25 9.140625 20.804688 8.15625 21.789062 C 7.175781 22.769531 6.621094 24.105469 6.621094 25.496094 Z M 6.621094 25.496094 " clip-rule="nonzero"/></clipPath><clipPath id="60ac4cfe91"><path d="M 33 168 L 81 168 L 81 216 L 33 216 Z M 33 168 " clip-rule="nonzero"/></clipPath><clipPath id="e4f2a73cfb"><path d="M 6.621094 25.496094 L 6.621094 244.308594 C 6.621094 245.699219 7.175781 247.03125 8.15625 248.015625 C 9.140625 249 10.476562 249.554688 11.867188 249.554688 L 257.9375 249.554688 C 259.328125 249.554688 260.664062 249 261.648438 248.015625 C 262.628906 247.03125 263.183594 245.699219 263.183594 244.308594 L 263.183594 25.496094 C 263.183594 24.105469 262.628906 22.769531 261.648438 21.789062 C 260.664062 20.804688 259.328125 20.25 257.9375 20.25 L 11.867188 20.25 C 10.476562 20.25 9.140625 20.804688 8.15625 21.789062 C 7.175781 22.769531 6.621094 24.105469 6.621094 25.496094 Z M 6.621094 25.496094 " clip-rule="nonzero"/></clipPath><clipPath id="cba75564f1"><path d="M 33 74 L 88 74 L 88 88 L 33 88 Z M 33 74 " clip-rule="nonzero"/></clipPath><clipPath id="4996a4da53"><path d="M 6.621094 25.496094 L 6.621094 244.308594 C 6.621094 245.699219 7.175781 247.03125 8.15625 248.015625 C 9.140625 249 10.476562 249.554688 11.867188 249.554688 L 257.9375 249.554688 C 259.328125 249.554688 260.664062 249 261.648438 248.015625 C 262.628906 247.03125 263.183594 245.699219 263.183594 244.308594 L 263.183594 25.496094 C 263.183594 24.105469 262.628906 22.769531 261.648438 21.789062 C 260.664062 20.804688 259.328125 20.25 257.9375 20.25 L 11.867188 20.25 C 10.476562 20.25 9.140625 20.804688 8.15625 21.789062 C 7.175781 22.769531 6.621094 24.105469 6.621094 25.496094 Z M 6.621094 25.496094 " clip-rule="nonzero"/></clipPath><clipPath id="1f7583c1d4"><path d="M 33 121 L 88 121 L 88 135 L 33 135 Z M 33 121 " clip-rule="nonzero"/></clipPath><clipPath id="de8e56bbf6"><path d="M 6.621094 25.496094 L 6.621094 244.308594 C 6.621094 245.699219 7.175781 247.03125 8.15625 248.015625 C 9.140625 249 10.476562 249.554688 11.867188 249.554688 L 257.9375 249.554688 C 259.328125 249.554688 260.664062 249 261.648438 248.015625 C 262.628906 247.03125 263.183594 245.699219 263.183594 244.308594 L 263.183594 25.496094 C 263.183594 24.105469 262.628906 22.769531 261.648438 21.789062 C 260.664062 20.804688 259.328125 20.25 257.9375 20.25 L 11.867188 20.25 C 10.476562 20.25 9.140625 20.804688 8.15625 21.789062 C 7.175781 22.769531 6.621094 24.105469 6.621094 25.496094 Z M 6.621094 25.496094 " clip-rule="nonzero"/></clipPath><clipPath id="3d1f3022d2"><path d="M 101 182 L 237 182 L 237 196 L 101 196 Z M 101 182 " clip-rule="nonzero"/></clipPath><clipPath id="fd2c236831"><path d="M 6.621094 25.496094 L 6.621094 244.308594 C 6.621094 245.699219 7.175781 247.03125 8.15625 248.015625 C 9.140625 249 10.476562 249.554688 11.867188 249.554688 L 257.9375 249.554688 C 259.328125 249.554688 260.664062 249 261.648438 248.015625 C 262.628906 247.03125 263.183594 245.699219 263.183594 244.308594 L 263.183594 25.496094 C 263.183594 24.105469 262.628906 22.769531 261.648438 21.789062 C 260.664062 20.804688 259.328125 20.25 257.9375 20.25 L 11.867188 20.25 C 10.476562 20.25 9.140625 20.804688 8.15625 21.789062 C 7.175781 22.769531 6.621094 24.105469 6.621094 25.496094 Z M 6.621094 25.496094 " clip-rule="nonzero"/></clipPath><clipPath id="b5b2a6c1cb"><path d="M 114 67 L 237 67 L 237 95 L 114 95 Z M 114 67 " clip-rule="nonzero"/></clipPath><clipPath id="4aa5035321"><path d="M 6.621094 25.496094 L 6.621094 244.308594 C 6.621094 245.699219 7.175781 247.03125 8.15625 248.015625 C 9.140625 249 10.476562 249.554688 11.867188 249.554688 L 257.9375 249.554688 C 259.328125 249.554688 260.664062 249 261.648438 248.015625 C 262.628906 247.03125 263.183594 245.699219 263.183594 244.308594 L 263.183594 25.496094 C 263.183594 24.105469 262.628906 22.769531 261.648438 21.789062 C 260.664062 20.804688 259.328125 20.25 257.9375 20.25 L 11.867188 20.25 C 10.476562 20.25 9.140625 20.804688 8.15625 21.789062 C 7.175781 22.769531 6.621094 24.105469 6.621094 25.496094 Z M 6.621094 25.496094 " clip-rule="nonzero"/></clipPath><clipPath id="3babb8229c"><path d="M 114 114 L 237 114 L 237 142 L 114 142 Z M 114 114 " clip-rule="nonzero"/></clipPath><clipPath id="cca84466cb"><path d="M 6.621094 25.496094 L 6.621094 244.308594 C 6.621094 245.699219 7.175781 247.03125 8.15625 248.015625 C 9.140625 249 10.476562 249.554688 11.867188 249.554688 L 257.9375 249.554688 C 259.328125 249.554688 260.664062 249 261.648438 248.015625 C 262.628906 247.03125 263.183594 245.699219 263.183594 244.308594 L 263.183594 25.496094 C 263.183594 24.105469 262.628906 22.769531 261.648438 21.789062 C 260.664062 20.804688 259.328125 20.25 257.9375 20.25 L 11.867188 20.25 C 10.476562 20.25 9.140625 20.804688 8.15625 21.789062 C 7.175781 22.769531 6.621094 24.105469 6.621094 25.496094 Z M 6.621094 25.496094 " clip-rule="nonzero"/></clipPath><clipPath id="bdf3a0cacd"><path d="M 47 182 L 68 182 L 68 203 L 47 203 Z M 47 182 " clip-rule="nonzero"/></clipPath><clipPath id="7e59c965b1"><path d="M 6.621094 25.496094 L 6.621094 244.308594 C 6.621094 245.699219 7.175781 247.03125 8.15625 248.015625 C 9.140625 249 10.476562 249.554688 11.867188 249.554688 L 257.9375 249.554688 C 259.328125 249.554688 260.664062 249 261.648438 248.015625 C 262.628906 247.03125 263.183594 245.699219 263.183594 244.308594 L 263.183594 25.496094 C 263.183594 24.105469 262.628906 22.769531 261.648438 21.789062 C 260.664062 20.804688 259.328125 20.25 257.9375 20.25 L 11.867188 20.25 C 10.476562 20.25 9.140625 20.804688 8.15625 21.789062 C 7.175781 22.769531 6.621094 24.105469 6.621094 25.496094 Z M 6.621094 25.496094 " clip-rule="nonzero"/></clipPath><clipPath id="28143d1f4c"><rect x="0" width="270" y="0" height="270"/></clipPath></defs><g transform="matrix(1, 0, 0, 1, 0, 0)"><g clip-path="url(#28143d1f4c)"><g clip-path="url(#d7e855ab7a)"><g clip-path="url(#3661b034a5)"><g transform="matrix(1, 0, 0, 1, 0, 0)"><g clip-path="url(#fb4b7da902)"><g clip-path="url(#9ab636e7bc)"><g clip-path="url(#4f07c23add)"><path fill="#2a3242" d="M 0 0 L 269.804688 0 L 269.804688 269.804688 L 0 269.804688 Z M 0 0 " fill-opacity="1" fill-rule="nonzero"/></g></g></g></g></g></g><g clip-path="url(#6cf98497eb)"><g clip-path="url(#ab5b58a83c)"><path fill="#2a3242" d="M 263.039062 242.804688 C 263.039062 246.535156 260.023438 249.550781 256.296875 249.550781 L 13.507812 249.550781 C 9.777344 249.550781 6.765625 246.535156 6.765625 242.804688 L 6.765625 26.996094 C 6.765625 23.265625 9.777344 20.25 13.507812 20.25 L 256.296875 20.25 C 260.023438 20.25 263.039062 23.265625 263.039062 26.996094 Z M 263.039062 242.804688 " fill-opacity="1" fill-rule="nonzero"/></g></g><g clip-path="url(#60ac4cfe91)"><g clip-path="url(#e4f2a73cfb)"><path fill="#a6a6a6" d="M 80.949219 168.621094 L 33.742188 168.621094 L 33.742188 215.828125 L 80.949219 215.828125 Z M 80.949219 168.621094 " fill-opacity="1" fill-rule="nonzero"/></g></g><g clip-path="url(#cba75564f1)"><g clip-path="url(#4996a4da53)"><path fill="#b4b4b4" d="M 33.742188 74.203125 L 87.691406 74.203125 L 87.691406 87.691406 L 33.742188 87.691406 Z M 33.742188 74.203125 " fill-opacity="1" fill-rule="nonzero"/></g></g><g clip-path="url(#1f7583c1d4)"><g clip-path="url(#de8e56bbf6)"><path fill="#b4b4b4" d="M 33.742188 121.414062 L 87.691406 121.414062 L 87.691406 134.902344 L 33.742188 134.902344 Z M 33.742188 121.414062 " fill-opacity="1" fill-rule="nonzero"/></g></g><g clip-path="url(#3d1f3022d2)"><g clip-path="url(#fd2c236831)"><path fill="#b4b4b4" d="M 101.179688 182.109375 L 236.0625 182.109375 L 236.0625 195.597656 L 101.179688 195.597656 Z M 101.179688 182.109375 " fill-opacity="1" fill-rule="nonzero"/></g></g><g clip-path="url(#b5b2a6c1cb)"><g clip-path="url(#4aa5035321)"><path fill="#ffffff" d="M 236.0625 87.691406 C 236.0625 91.414062 233.046875 94.4375 229.320312 94.4375 L 121.414062 94.4375 C 117.691406 94.4375 114.667969 91.414062 114.667969 87.691406 L 114.667969 74.203125 C 114.667969 70.480469 117.691406 67.460938 121.414062 67.460938 L 229.320312 67.460938 C 233.046875 67.460938 236.0625 70.480469 236.0625 74.203125 Z M 236.0625 87.691406 " fill-opacity="1" fill-rule="nonzero"/></g></g><g clip-path="url(#3babb8229c)"><g clip-path="url(#cca84466cb)"><path fill="#ffffff" d="M 236.0625 134.902344 C 236.0625 138.625 233.046875 141.644531 229.320312 141.644531 L 121.414062 141.644531 C 117.691406 141.644531 114.667969 138.625 114.667969 134.902344 L 114.667969 121.414062 C 114.667969 117.691406 117.691406 114.667969 121.414062 114.667969 L 229.320312 114.667969 C 233.046875 114.667969 236.0625 117.691406 236.0625 121.414062 Z M 236.0625 134.902344 " fill-opacity="1" fill-rule="nonzero"/></g></g><g clip-path="url(#bdf3a0cacd)"><g clip-path="url(#7e59c965b1)"><path fill="#fafafa" d="M 47.230469 182.109375 L 67.460938 182.109375 L 67.460938 202.339844 L 47.230469 202.339844 Z M 47.230469 182.109375 " fill-opacity="1" fill-rule="nonzero"/></g></g></g></g></svg>